<svg width="59" height="59" viewBox="0 0 59 59" fill="none" xmlns="http://www.w3.org/2000/svg">
<path d="M51.625 18.0762V40.9239C51.625 41.4595 51.3347 41.9529 50.8663 42.2133L30.2163 53.6853C29.7709 53.9329 29.2291 53.9329 28.7836 53.6853L8.13365 42.2133C7.66542 41.9529 7.37499 41.4595 7.37499 40.9239L7.37494 18.0762C7.37494 17.5405 7.66537 17.047 8.13363 16.7868L28.7836 5.31461C29.2291 5.06713 29.7709 5.06713 30.2163 5.31461L50.8663 16.7868C51.3344 17.047 51.625 17.5405 51.625 18.0762Z" fill="#58B9FF" stroke="white" stroke-width="3" stroke-linecap="round" stroke-linejoin="round"/>
<path d="M8.67407 17.93L28.7836 29.102C29.2291 29.3495 29.7709 29.3495 30.2164 29.102L50.3958 17.8912" fill="#58B9FF"/>
<path d="M8.67407 17.93L28.7836 29.102C29.2291 29.3495 29.7709 29.3495 30.2164 29.102L50.3958 17.8912" stroke="white" stroke-width="3" stroke-linecap="round" stroke-linejoin="round"/>
<path d="M29.5 51.625V29.5V51.625Z" fill="#58B9FF"/>
<path d="M29.5 51.625V29.5" stroke="white" stroke-width="3" stroke-linecap="round" stroke-linejoin="round"/>
</svg>
